<svg width="30" height="20" viewBox="0 0 30 20" fill="none" xmlns="http://www.w3.org/2000/svg">
<g clip-path="url(#clip0_295_86)">
<path d="M29.1907 19.5002H1.19082C0.914696 19.5002 0.690796 19.2763 0.690796 19.0002V1.00027C0.690796 0.724144 0.914696 0.500244 1.19082 0.500244H29.1908C29.4669 0.500244 29.6908 0.724144 29.6908 1.00027V19.0002C29.6907 19.2764 29.4668 19.5002 29.1907 19.5002Z" fill="#F5F5F5"/>
<path d="M29.6907 8.49996H16.6908V0.5H13.6908V8.49996H0.690796V11.5H13.6908V19.4999H16.6908V11.5H29.6907V8.49996Z" fill="#FF4B55"/>
<path d="M9.19082 3.8167C8.69555 3.86648 8.21037 3.91638 7.72451 3.96634C7.77446 3.48042 7.82431 2.99524 7.87421 2.50003C7.42001 2.55877 6.96173 2.55877 6.50753 2.50003C6.55731 2.99524 6.60721 3.48048 6.65723 3.96634C6.17131 3.91644 5.68607 3.86654 5.19092 3.8167C5.24965 4.27084 5.24965 4.72918 5.19092 5.18332C5.68618 5.13353 6.17137 5.08363 6.65723 5.03367C6.60727 5.51959 6.55737 6.00478 6.50753 6.49998C6.96173 6.44125 7.42001 6.44125 7.87421 6.49998C7.82442 6.00478 7.77446 5.51954 7.72451 5.03367C8.21042 5.08357 8.69561 5.13348 9.19082 5.18332C9.13214 4.72918 9.13214 4.27078 9.19082 3.8167Z" fill="#FF4B55"/>
<path d="M25.1908 3.8167C24.6955 3.86648 24.2104 3.91638 23.7245 3.96634C23.7745 3.48042 23.8243 2.99524 23.8742 2.50003C23.42 2.55877 22.9617 2.55877 22.5075 2.50003C22.5573 2.99524 22.6072 3.48048 22.6572 3.96634C22.1713 3.91644 21.6861 3.86654 21.1909 3.8167C21.2497 4.27084 21.2497 4.72918 21.1909 5.18332C21.6862 5.13353 22.1714 5.08363 22.6572 5.03367C22.6073 5.51959 22.5574 6.00478 22.5075 6.49998C22.9617 6.44125 23.42 6.44125 23.8742 6.49998C23.8244 6.00478 23.7745 5.51954 23.7245 5.03367C24.2104 5.08357 24.6956 5.13348 25.1908 5.18332C25.1321 4.72918 25.1321 4.27078 25.1908 3.8167Z" fill="#FF4B55"/>
<path d="M9.19082 14.8165C8.69555 14.8663 8.21037 14.9162 7.72451 14.9662C7.77446 14.4803 7.82431 13.9951 7.87421 13.4999C7.42001 13.5586 6.96173 13.5586 6.50753 13.4999C6.55731 13.9951 6.60721 14.4803 6.65723 14.9662C6.17131 14.9163 5.68607 14.8664 5.19092 14.8165C5.24965 15.2707 5.24965 15.729 5.19092 16.1832C5.68618 16.1334 6.17137 16.0835 6.65723 16.0335C6.60727 16.5194 6.55737 17.0046 6.50753 17.4998C6.96173 17.4411 7.42001 17.4411 7.87421 17.4998C7.82442 17.0046 7.77446 16.5194 7.72451 16.0335C8.21042 16.0834 8.69561 16.1333 9.19082 16.1832C9.13214 15.7291 9.13214 15.2707 9.19082 14.8165Z" fill="#FF4B55"/>
<path d="M25.1908 14.8165C24.6955 14.8663 24.2104 14.9162 23.7245 14.9662C23.7745 14.4803 23.8243 13.9951 23.8742 13.4999C23.42 13.5586 22.9617 13.5586 22.5075 13.4999C22.5573 13.9951 22.6072 14.4803 22.6572 14.9662C22.1713 14.9163 21.6861 14.8664 21.1909 14.8165C21.2497 15.2707 21.2497 15.729 21.1909 16.1832C21.6862 16.1334 22.1714 16.0835 22.6572 16.0335C22.6073 16.5194 22.5574 17.0046 22.5075 17.4998C22.9617 17.4411 23.42 17.4411 23.8742 17.4998C23.8244 17.0046 23.7745 16.5194 23.7245 16.0335C24.2104 16.0834 24.6956 16.1333 25.1908 16.1832C25.1321 15.7291 25.1321 15.2707 25.1908 14.8165Z" fill="#FF4B55"/>
</g>
<defs>
<clipPath id="clip0_295_86">
<rect width="29" height="19" fill="white" transform="translate(0.690796 0.5)"/>
</clipPath>
</defs>
</svg>
