

<svg width="157" height="42" viewBox="0 0 157 42" fill="none" xmlns="http://www.w3.org/2000/svg">
<path d="M38.5485 18.3725C37.3067 19.1888 31.7947 22.3042 19.9918 22.3042C8.24275 22.3042 2.26511 19.1754 0.893617 18.3499C0.891934 18.4771 0.883514 18.6036 0.883514 18.7308C0.883514 19.2625 0.911298 19.7857 0.95592 20.3057C3.45727 21.5959 9.49721 23.9787 19.9909 23.9787C30.3129 23.9787 36.0556 21.6679 38.482 20.3584C38.5283 19.8217 38.5578 19.28 38.5578 18.7325C38.5595 18.6111 38.5527 18.4914 38.5485 18.3725Z" fill="#2857B4"/>
<path d="M1.65974 23.7174L1.59071 23.7978L1.59239 23.7995C1.82729 24.6334 2.11859 25.443 2.4621 26.2242C5.13604 27.691 10.7432 29.9331 20.0372 29.9331C28.725 29.9331 34.0687 27.9757 36.8478 26.5189C37.2259 25.6992 37.5466 24.8477 37.8059 23.9695C36.5254 24.898 31.1346 28.2587 20.038 28.2587C7.21306 28.2587 1.71279 23.7635 1.65974 23.7174Z" fill="#2857B4"/>
<path d="M37.9575 14.0322C37.8085 13.4629 37.6325 12.9036 37.4346 12.356C36.1751 13.308 31.5227 16.096 20.3074 16.096C9.09474 16.096 3.57847 13.2527 2.03186 12.2907C1.83317 12.8291 1.66058 13.38 1.5124 13.9409C3.67277 15.1985 9.42056 17.7705 20.3066 17.7705C30.8264 17.7705 35.947 15.3534 37.9575 14.0322Z" fill="#2857B4"/>
<path d="M4.43054 29.6518C5.46021 31.0726 6.68352 32.3452 8.06258 33.4295C10.7955 34.44 14.7483 35.3577 20.1517 35.3577C24.9717 35.3577 28.5187 34.5949 31.0622 33.6781C32.613 32.5119 33.9744 31.112 35.0992 29.5313C34.5301 30.0755 30.3651 33.6832 20.1517 33.6832C9.89966 33.6823 5.11165 30.1927 4.43054 29.6518Z" fill="#2857B4"/>
<path d="M36.384 30.6239C36.3983 30.6096 36.4185 30.5879 36.4235 30.5828L36.4168 30.5753C36.4042 30.5921 36.3958 30.6088 36.384 30.6239Z" fill="#2857B4"/>
<path d="M20.2444 1.9332C22.7718 1.84194 24.4851 1.21735 25.306 0.840593C24.1627 0.487276 22.9705 0.240289 21.7455 0.109679C21.0804 0.0393505 20.406 0 19.7224 0C19.0581 0 18.4039 0.0360015 17.7556 0.102981C16.4961 0.233591 15.2728 0.487276 14.0983 0.853152C14.8855 1.17214 17.0661 1.94073 19.7443 1.94073C19.9093 1.94157 20.0768 1.93989 20.2444 1.9332Z" fill="#2857B4"/>
<path d="M20.3008 37.6224C19.4302 37.65 18.6102 37.5797 17.871 37.465C16.6115 37.5956 15.3882 37.851 14.212 38.2168C15.0017 38.5341 17.1815 39.3044 19.8605 39.3044C20.0246 39.3044 20.193 39.3011 20.3606 39.2944C22.8888 39.2048 24.6013 38.5794 25.423 38.2034C24.2789 37.8476 23.0867 37.6023 21.86 37.4725C21.3843 37.5437 20.8741 37.6023 20.3008 37.6224Z" fill="#2857B4"/>
<path d="M31.2912 3.96603C30.8172 3.59932 30.3263 3.25437 29.8212 2.93287C28.3596 3.86472 25.3539 5.18338 20.0372 5.18338C14.7356 5.18338 11.2846 3.93924 9.46856 3.03166C8.94405 3.37158 8.43553 3.73662 7.9489 4.12594C9.70851 5.14989 13.6058 6.85871 20.0364 6.85871C26.403 6.85703 29.79 5.07956 31.2912 3.96603Z" fill="#2857B4"/>
<path d="M35.4949 8.50975C35.1867 8.04173 34.8567 7.58878 34.5098 7.1509C33.0095 8.27281 28.7528 10.7092 20.0338 10.7092C11.9025 10.7092 7.16842 8.24518 5.15539 6.86959C4.79673 7.30328 4.45828 7.75455 4.13919 8.22006C6.34755 9.75892 11.3696 12.3837 20.0338 12.3837C29.0735 12.3837 33.6915 9.84599 35.4949 8.50975Z" fill="#2857B4"/>
<path d="M47.7083 38.9337H46.8167V30.7835H47.7083V38.9337ZM48.6736 36.731C48.6736 36.4163 48.7331 36.1191 48.8519 35.8394C48.9778 35.5597 49.1456 35.3184 49.3554 35.1156C49.5652 34.9058 49.81 34.7415 50.0897 34.6226C50.3764 34.4967 50.6841 34.4338 51.0128 34.4338C51.3414 34.4338 51.6456 34.4967 51.9253 34.6226C52.212 34.7415 52.4568 34.9058 52.6596 35.1156C52.8694 35.3184 53.0302 35.5597 53.1421 35.8394C53.261 36.1191 53.3204 36.4163 53.3204 36.731C53.3204 37.0457 53.261 37.3429 53.1421 37.6226C53.0302 37.9023 52.8694 38.147 52.6596 38.3568C52.4568 38.5666 52.212 38.7344 51.9253 38.8603C51.6456 38.9792 51.3379 39.0386 51.0023 39.0386C50.6806 39.0386 50.3764 38.9827 50.0897 38.8708C49.81 38.7589 49.5652 38.6016 49.3554 38.3988C49.1456 38.196 48.9778 37.9547 48.8519 37.675C48.7331 37.3883 48.6736 37.0736 48.6736 36.731ZM49.5652 36.7415C49.5652 36.9373 49.6002 37.1226 49.6701 37.2974C49.747 37.4652 49.8484 37.6156 49.9743 37.7484C50.1072 37.8743 50.2575 37.9757 50.4254 38.0526C50.6002 38.1226 50.7855 38.1575 50.9813 38.1575C51.1771 38.1575 51.3624 38.1226 51.5372 38.0526C51.7121 37.9757 51.8624 37.8743 51.9883 37.7484C52.1211 37.6156 52.226 37.4652 52.303 37.2974C52.3799 37.1226 52.4183 36.9373 52.4183 36.7415C52.4183 36.5457 52.3799 36.3603 52.303 36.1855C52.226 36.0107 52.1211 35.8604 51.9883 35.7345C51.8624 35.6016 51.7121 35.5002 51.5372 35.4303C51.3624 35.3534 51.1771 35.3149 50.9813 35.3149C50.7855 35.3149 50.6002 35.3534 50.4254 35.4303C50.2575 35.5002 50.1072 35.6016 49.9743 35.7345C49.8484 35.8604 49.747 36.0107 49.6701 36.1855C49.6002 36.3603 49.5652 36.5457 49.5652 36.7415ZM53.98 36.752C53.98 36.4233 54.0395 36.1191 54.1583 35.8394C54.2772 35.5527 54.4381 35.3079 54.6409 35.1051C54.8437 34.8953 55.0814 34.731 55.3541 34.6121C55.6269 34.4932 55.9171 34.4338 56.2248 34.4338C56.4625 34.4338 56.6723 34.4653 56.8541 34.5282C57.0429 34.5911 57.2003 34.6646 57.3261 34.7485C57.452 34.8324 57.5499 34.9163 57.6199 35.0002C57.6968 35.0771 57.7457 35.1331 57.7667 35.1681C57.7667 35.0702 57.7737 34.9688 57.7877 34.8639C57.8017 34.752 57.8087 34.6471 57.8087 34.5492H58.6688V38.7344C58.6688 39.4617 58.4555 40.0281 58.0289 40.4337C57.6024 40.8393 57.0255 41.0421 56.2982 41.0421C56.0464 41.0421 55.8192 41.0141 55.6164 40.9582C55.4206 40.9093 55.2388 40.8428 55.0709 40.7589C54.9101 40.675 54.7597 40.5771 54.6199 40.4652C54.487 40.3533 54.3542 40.2379 54.2213 40.119L54.7982 39.5107C55.015 39.7135 55.2353 39.8743 55.459 39.9932C55.6898 40.1121 55.9625 40.1715 56.2772 40.1715C56.7457 40.1715 57.1094 40.0596 57.3681 39.8358C57.6268 39.6121 57.7597 39.3009 57.7667 38.9023V38.5981C57.7667 38.5421 57.7737 38.4827 57.7877 38.4198C57.8017 38.3498 57.8087 38.2974 57.8087 38.2624C57.7457 38.3463 57.6653 38.4372 57.5674 38.5351C57.4765 38.6261 57.3681 38.71 57.2422 38.7869C57.1164 38.8568 56.9695 38.9163 56.8017 38.9652C56.6338 39.0142 56.445 39.0386 56.2353 39.0386C55.9066 39.0386 55.6059 38.9792 55.3332 38.8603C55.0604 38.7414 54.8227 38.5806 54.6199 38.3778C54.4171 38.168 54.2597 37.9268 54.1479 37.654C54.036 37.3743 53.98 37.0736 53.98 36.752ZM54.8821 36.731C54.8821 36.9338 54.9171 37.1226 54.987 37.2974C55.0639 37.4722 55.1653 37.6226 55.2912 37.7484C55.4171 37.8743 55.5674 37.9757 55.7422 38.0526C55.9171 38.1226 56.1094 38.1575 56.3192 38.1575C56.529 38.1575 56.7213 38.1226 56.8961 38.0526C57.0779 37.9757 57.2317 37.8743 57.3576 37.7484C57.4905 37.6156 57.5919 37.4652 57.6618 37.2974C57.7317 37.1226 57.7667 36.9338 57.7667 36.731C57.7667 36.5282 57.7317 36.3429 57.6618 36.175C57.5919 36.0002 57.4905 35.8499 57.3576 35.724C57.2317 35.5981 57.0779 35.5002 56.8961 35.4303C56.7213 35.3534 56.529 35.3149 56.3192 35.3149C56.1094 35.3149 55.9171 35.3534 55.7422 35.4303C55.5674 35.5002 55.4171 35.5981 55.2912 35.724C55.1653 35.8499 55.0639 36.0002 54.987 36.175C54.9171 36.3429 54.8821 36.5282 54.8821 36.731ZM59.8128 32.8709C59.8128 32.703 59.8722 32.5632 59.9911 32.4513C60.117 32.3394 60.2499 32.2835 60.3897 32.2835C60.5296 32.2835 60.6589 32.3394 60.7778 32.4513C60.8967 32.5632 60.9561 32.703 60.9561 32.8709C60.9561 33.0387 60.8967 33.1786 60.7778 33.2904C60.6589 33.3953 60.5296 33.4478 60.3897 33.4478C60.2499 33.4478 60.117 33.3953 59.9911 33.2904C59.8722 33.1786 59.8128 33.0387 59.8128 32.8709ZM60.8198 38.9337H59.9282V34.5492H60.8198V38.9337ZM64.5234 34.9373L64.0513 35.5666C64.0443 35.5597 64.0199 35.5422 63.9779 35.5142C63.9359 35.4862 63.88 35.4583 63.8101 35.4303C63.7471 35.4023 63.6702 35.3778 63.5793 35.3569C63.4954 35.3289 63.408 35.3149 63.3171 35.3149C63.1982 35.3149 63.0793 35.3429 62.9604 35.3988C62.8485 35.4548 62.7926 35.5597 62.7926 35.7135C62.7926 35.8464 62.8381 35.9548 62.929 36.0387C63.0269 36.1226 63.1457 36.1995 63.2856 36.2694C63.4255 36.3324 63.5758 36.3988 63.7366 36.4687C63.9045 36.5387 64.0583 36.6261 64.1982 36.731C64.338 36.8289 64.4534 36.9547 64.5443 37.1086C64.6422 37.2554 64.6912 37.4443 64.6912 37.675C64.6912 38.0666 64.5548 38.3918 64.2821 38.6505C64.0164 38.9023 63.6492 39.0282 63.1807 39.0282C62.908 39.0282 62.6388 38.9827 62.373 38.8918C62.1143 38.7939 61.9045 38.654 61.7437 38.4722C61.7926 38.4233 61.8451 38.3603 61.901 38.2834C61.9639 38.2065 62.0234 38.1331 62.0793 38.0631C62.1423 37.9932 62.1912 37.9373 62.2262 37.8953C62.2681 37.8463 62.2926 37.8219 62.2996 37.8219C62.2996 37.8289 62.3241 37.8498 62.373 37.8848C62.429 37.9198 62.4989 37.9582 62.5828 38.0002C62.6667 38.0352 62.7611 38.0701 62.866 38.1051C62.9709 38.1331 63.0758 38.147 63.1807 38.147C63.3485 38.147 63.4919 38.1051 63.6108 38.0212C63.7297 37.9373 63.7891 37.8254 63.7891 37.6855C63.7891 37.5596 63.7401 37.4617 63.6422 37.3918C63.5513 37.3149 63.436 37.245 63.2961 37.182C63.1562 37.1191 63.0024 37.0561 62.8346 36.9932C62.6667 36.9233 62.5129 36.8359 62.373 36.731C62.2332 36.6261 62.1143 36.4967 62.0164 36.3429C61.9255 36.182 61.88 35.9757 61.88 35.724C61.88 35.4862 61.922 35.2869 62.0059 35.1261C62.0968 34.9653 62.2087 34.8359 62.3416 34.738C62.4814 34.6331 62.6353 34.5597 62.8031 34.5177C62.9709 34.4688 63.1318 34.4443 63.2856 34.4443C63.4884 34.4443 63.7052 34.4862 63.9359 34.5702C64.1667 34.6541 64.3625 34.7764 64.5234 34.9373ZM66.0217 32.6191H66.9133V34.5597H68.0881V35.3569H66.9133V38.9337H66.0217V35.3569H65.235V34.5597H66.0217V32.6191ZM68.7144 32.8709C68.7144 32.703 68.7739 32.5632 68.8928 32.4513C69.0186 32.3394 69.1515 32.2835 69.2914 32.2835C69.4312 32.2835 69.5606 32.3394 69.6795 32.4513C69.7983 32.5632 69.8578 32.703 69.8578 32.8709C69.8578 33.0387 69.7983 33.1786 69.6795 33.2904C69.5606 33.3953 69.4312 33.4478 69.2914 33.4478C69.1515 33.4478 69.0186 33.3953 68.8928 33.2904C68.7739 33.1786 68.7144 33.0387 68.7144 32.8709ZM69.7214 38.9337H68.8298V34.5492H69.7214V38.9337ZM73.918 37.8533C74.0159 37.9722 74.1068 38.0876 74.1907 38.1995C74.2816 38.3044 74.3725 38.4163 74.4635 38.5351C74.2677 38.689 74.0474 38.8114 73.8026 38.9023C73.5579 38.9932 73.2921 39.0386 73.0054 39.0386C72.6838 39.0386 72.3796 38.9792 72.0928 38.8603C71.8131 38.7344 71.5684 38.5666 71.3586 38.3568C71.1488 38.147 70.981 37.9023 70.8551 37.6226C70.7362 37.3429 70.6768 37.0457 70.6768 36.731C70.6768 36.4163 70.7362 36.1191 70.8551 35.8394C70.981 35.5597 71.1488 35.3184 71.3586 35.1156C71.5684 34.9058 71.8131 34.7415 72.0928 34.6226C72.3796 34.4967 72.6838 34.4338 73.0054 34.4338C73.2991 34.4338 73.5684 34.4792 73.8131 34.5702C74.0649 34.6611 74.2921 34.7834 74.4949 34.9373L73.918 35.6191C73.7991 35.5212 73.6628 35.4478 73.5089 35.3988C73.3551 35.3429 73.1872 35.3149 73.0054 35.3149C72.7956 35.3149 72.6033 35.3534 72.4285 35.4303C72.2537 35.5002 72.0998 35.5981 71.967 35.724C71.8411 35.8499 71.7432 36.0002 71.6733 36.175C71.6033 36.3429 71.5684 36.5282 71.5684 36.731C71.5684 36.9338 71.6033 37.1226 71.6733 37.2974C71.7432 37.4652 71.8411 37.6156 71.967 37.7484C72.0998 37.8743 72.2537 37.9757 72.4285 38.0526C72.6033 38.1226 72.7956 38.1575 73.0054 38.1575C73.1872 38.1575 73.3551 38.1331 73.5089 38.0841C73.6628 38.0282 73.7991 37.9512 73.918 37.8533ZM77.7888 34.9373L77.3167 35.5666C77.3097 35.5597 77.2853 35.5422 77.2433 35.5142C77.2014 35.4862 77.1454 35.4583 77.0755 35.4303C77.0125 35.4023 76.9356 35.3778 76.8447 35.3569C76.7608 35.3289 76.6734 35.3149 76.5825 35.3149C76.4636 35.3149 76.3447 35.3429 76.2258 35.3988C76.1139 35.4548 76.058 35.5597 76.058 35.7135C76.058 35.8464 76.1035 35.9548 76.1944 36.0387C76.2923 36.1226 76.4111 36.1995 76.551 36.2694C76.6909 36.3324 76.8412 36.3988 77.0021 36.4687C77.1699 36.5387 77.3237 36.6261 77.4636 36.731C77.6034 36.8289 77.7188 36.9547 77.8097 37.1086C77.9076 37.2554 77.9566 37.4443 77.9566 37.675C77.9566 38.0666 77.8202 38.3918 77.5475 38.6505C77.2818 38.9023 76.9146 39.0282 76.4461 39.0282C76.1734 39.0282 75.9042 38.9827 75.6384 38.8918C75.3797 38.7939 75.1699 38.654 75.0091 38.4722C75.058 38.4233 75.1105 38.3603 75.1664 38.2834C75.2293 38.2065 75.2888 38.1331 75.3447 38.0631C75.4077 37.9932 75.4566 37.9373 75.4916 37.8953C75.5335 37.8463 75.558 37.8219 75.565 37.8219C75.565 37.8289 75.5895 37.8498 75.6384 37.8848C75.6944 37.9198 75.7643 37.9582 75.8482 38.0002C75.9321 38.0352 76.0265 38.0701 76.1314 38.1051C76.2363 38.1331 76.3412 38.147 76.4461 38.147C76.6139 38.147 76.7573 38.1051 76.8762 38.0212C76.9951 37.9373 77.0545 37.8254 77.0545 37.6855C77.0545 37.5596 77.0055 37.4617 76.9076 37.3918C76.8167 37.3149 76.7014 37.245 76.5615 37.182C76.4216 37.1191 76.2678 37.0561 76.1 36.9932C75.9321 36.9233 75.7783 36.8359 75.6384 36.731C75.4986 36.6261 75.3797 36.4967 75.2818 36.3429C75.1909 36.182 75.1454 35.9757 75.1454 35.724C75.1454 35.4862 75.1874 35.2869 75.2713 35.1261C75.3622 34.9653 75.4741 34.8359 75.607 34.738C75.7468 34.6331 75.9007 34.5597 76.0685 34.5177C76.2363 34.4688 76.3972 34.4443 76.551 34.4443C76.7538 34.4443 76.9706 34.4862 77.2014 34.5702C77.4321 34.6541 77.6279 34.7764 77.7888 34.9373ZM81.0333 36.752C81.0333 36.4233 81.0927 36.1191 81.2116 35.8394C81.3305 35.5527 81.4913 35.3079 81.6941 35.1051C81.8969 34.8953 82.1346 34.731 82.4074 34.6121C82.6801 34.4932 82.9703 34.4338 83.278 34.4338C83.5158 34.4338 83.7255 34.4653 83.9074 34.5282C84.0962 34.5911 84.2535 34.6646 84.3794 34.7485C84.5053 34.8324 84.6032 34.9163 84.6731 35.0002C84.75 35.0771 84.799 35.1331 84.8199 35.1681C84.8199 35.0702 84.8269 34.9688 84.8409 34.8639C84.8549 34.752 84.8619 34.6471 84.8619 34.5492H85.722V38.7344C85.722 39.4617 85.5087 40.0281 85.0822 40.4337C84.6556 40.8393 84.0787 41.0421 83.3514 41.0421C83.0997 41.0421 82.8724 41.0141 82.6696 40.9582C82.4738 40.9093 82.292 40.8428 82.1242 40.7589C81.9633 40.675 81.813 40.5771 81.6731 40.4652C81.5402 40.3533 81.4074 40.2379 81.2745 40.119L81.8514 39.5107C82.0682 39.7135 82.2885 39.8743 82.5123 39.9932C82.743 40.1121 83.0158 40.1715 83.3304 40.1715C83.799 40.1715 84.1626 40.0596 84.4213 39.8358C84.6801 39.6121 84.8129 39.3009 84.8199 38.9023V38.5981C84.8199 38.5421 84.8269 38.4827 84.8409 38.4198C84.8549 38.3498 84.8619 38.2974 84.8619 38.2624C84.799 38.3463 84.7185 38.4372 84.6206 38.5351C84.5297 38.6261 84.4213 38.71 84.2955 38.7869C84.1696 38.8568 84.0227 38.9163 83.8549 38.9652C83.6871 39.0142 83.4983 39.0386 83.2885 39.0386C82.9598 39.0386 82.6591 38.9792 82.3864 38.8603C82.1137 38.7414 81.8759 38.5806 81.6731 38.3778C81.4703 38.168 81.313 37.9268 81.2011 37.654C81.0892 37.3743 81.0333 37.0736 81.0333 36.752ZM81.9354 36.731C81.9354 36.9338 81.9703 37.1226 82.0402 37.2974C82.1172 37.4722 82.2186 37.6226 82.3444 37.7484C82.4703 37.8743 82.6207 37.9757 82.7955 38.0526C82.9703 38.1226 83.1626 38.1575 83.3724 38.1575C83.5822 38.1575 83.7745 38.1226 83.9493 38.0526C84.1311 37.9757 84.285 37.8743 84.4108 37.7484C84.5437 37.6156 84.6451 37.4652 84.715 37.2974C84.785 37.1226 84.8199 36.9338 84.8199 36.731C84.8199 36.5282 84.785 36.3429 84.715 36.175C84.6451 36.0002 84.5437 35.8499 84.4108 35.724C84.285 35.5981 84.1311 35.5002 83.9493 35.4303C83.7745 35.3534 83.5822 35.3149 83.3724 35.3149C83.1626 35.3149 82.9703 35.3534 82.7955 35.4303C82.6207 35.5002 82.4703 35.5981 82.3444 35.724C82.2186 35.8499 82.1172 36.0002 82.0402 36.175C81.9703 36.3429 81.9354 36.5282 81.9354 36.731ZM89.394 35.5876C89.1982 35.5876 89.0094 35.6156 88.8275 35.6715C88.6457 35.7205 88.4814 35.7974 88.3345 35.9023C88.1947 36.0072 88.0828 36.1401 87.9989 36.3009C87.915 36.4548 87.873 36.6331 87.873 36.8359V38.9337H86.9814V34.5492H87.7681C87.7821 34.766 87.7926 34.9653 87.7996 35.1471C87.8136 35.3219 87.8276 35.4967 87.8415 35.6715C87.9324 35.4827 88.0513 35.3114 88.1982 35.1576C88.345 35.0037 88.5024 34.8743 88.6702 34.7695C88.838 34.6646 89.0024 34.5841 89.1632 34.5282C89.324 34.4653 89.4674 34.4338 89.5933 34.4338L89.394 35.5876ZM89.8527 36.731C89.8527 36.4163 89.9122 36.1191 90.031 35.8394C90.1569 35.5597 90.3247 35.3184 90.5345 35.1156C90.7443 34.9058 90.9891 34.7415 91.2688 34.6226C91.5555 34.4967 91.8632 34.4338 92.1919 34.4338C92.5205 34.4338 92.8247 34.4967 93.1044 34.6226C93.3911 34.7415 93.6359 34.9058 93.8387 35.1156C94.0485 35.3184 94.2093 35.5597 94.3212 35.8394C94.4401 36.1191 94.4995 36.4163 94.4995 36.731C94.4995 37.0457 94.4401 37.3429 94.3212 37.6226C94.2093 37.9023 94.0485 38.147 93.8387 38.3568C93.6359 38.5666 93.3911 38.7344 93.1044 38.8603C92.8247 38.9792 92.517 39.0386 92.1814 39.0386C91.8597 39.0386 91.5555 38.9827 91.2688 38.8708C90.9891 38.7589 90.7443 38.6016 90.5345 38.3988C90.3247 38.196 90.1569 37.9547 90.031 37.675C89.9122 37.3883 89.8527 37.0736 89.8527 36.731ZM90.7443 36.7415C90.7443 36.9373 90.7793 37.1226 90.8492 37.2974C90.9261 37.4652 91.0275 37.6156 91.1534 37.7484C91.2863 37.8743 91.4366 37.9757 91.6044 38.0526C91.7793 38.1226 91.9646 38.1575 92.1604 38.1575C92.3562 38.1575 92.5415 38.1226 92.7163 38.0526C92.8911 37.9757 93.0415 37.8743 93.1674 37.7484C93.3002 37.6156 93.4051 37.4652 93.482 37.2974C93.559 37.1226 93.5974 36.9373 93.5974 36.7415C93.5974 36.5457 93.559 36.3603 93.482 36.1855C93.4051 36.0107 93.3002 35.8604 93.1674 35.7345C93.0415 35.6016 92.8911 35.5002 92.7163 35.4303C92.5415 35.3534 92.3562 35.3149 92.1604 35.3149C91.9646 35.3149 91.7793 35.3534 91.6044 35.4303C91.4366 35.5002 91.2863 35.6016 91.1534 35.7345C91.0275 35.8604 90.9261 36.0107 90.8492 36.1855C90.7793 36.3603 90.7443 36.5457 90.7443 36.7415ZM99.5332 39.0282H98.778L98.6731 37.8114C98.5122 38.168 98.285 38.4617 97.9913 38.6925C97.7046 38.9233 97.3374 39.0386 96.8899 39.0386C96.4423 39.0386 96.0857 38.9198 95.82 38.682C95.5612 38.4372 95.4249 38.1191 95.4109 37.7275V34.5492H96.3025V37.3289C96.3165 37.5456 96.3934 37.731 96.5332 37.8848C96.6801 38.0387 96.9039 38.1261 97.2046 38.147C97.4143 38.147 97.6067 38.1121 97.7815 38.0421C97.9563 37.9652 98.1066 37.8638 98.2325 37.738C98.3584 37.6121 98.4563 37.4617 98.5262 37.2869C98.5962 37.1121 98.6311 36.9198 98.6311 36.71V34.5492H99.5332V39.0282ZM104.503 36.731C104.503 36.5282 104.471 36.3429 104.409 36.175C104.346 36.0002 104.255 35.8499 104.136 35.724C104.017 35.5981 103.874 35.5002 103.706 35.4303C103.538 35.3534 103.349 35.3149 103.139 35.3149C102.93 35.3149 102.734 35.3534 102.552 35.4303C102.377 35.5002 102.227 35.5981 102.101 35.724C101.975 35.8499 101.874 36.0002 101.797 36.175C101.727 36.3429 101.692 36.5282 101.692 36.731C101.692 36.9338 101.727 37.1226 101.797 37.2974C101.874 37.4722 101.975 37.6226 102.101 37.7484C102.227 37.8743 102.377 37.9757 102.552 38.0526C102.734 38.1226 102.93 38.1575 103.139 38.1575C103.349 38.1575 103.538 38.1226 103.706 38.0526C103.874 37.9757 104.017 37.8743 104.136 37.7484C104.255 37.6156 104.346 37.4652 104.409 37.2974C104.471 37.1226 104.503 36.9338 104.503 36.731ZM105.478 36.752C105.478 37.0806 105.423 37.3848 105.311 37.6645C105.199 37.9442 105.041 38.1855 104.839 38.3883C104.636 38.5911 104.391 38.7519 104.104 38.8708C103.825 38.9827 103.517 39.0386 103.181 39.0386C103.006 39.0386 102.839 39.0177 102.678 38.9757C102.524 38.9407 102.381 38.8918 102.248 38.8289C102.115 38.7589 101.999 38.6855 101.902 38.6086C101.804 38.5247 101.73 38.4407 101.681 38.3568C101.681 38.3918 101.681 38.4303 101.681 38.4722C101.688 38.5072 101.692 38.5421 101.692 38.5771V41.0421H100.79V34.5492H101.66C101.66 34.6331 101.664 34.738 101.671 34.8639C101.685 34.9827 101.692 35.0911 101.692 35.189C101.748 35.1051 101.821 35.0212 101.912 34.9373C102.01 34.8464 102.122 34.766 102.248 34.696C102.381 34.6191 102.527 34.5562 102.688 34.5072C102.849 34.4583 103.027 34.4338 103.223 34.4338C103.559 34.4338 103.863 34.4897 104.136 34.6016C104.416 34.7065 104.653 34.8604 104.849 35.0632C105.052 35.259 105.206 35.5002 105.311 35.7869C105.423 36.0736 105.478 36.3953 105.478 36.752Z" fill="white"/>
<path d="M69.0019 29H63.0693L52.383 10.7579V29H46.8369V1.28897H52.7695L63.4558 19.5504V1.28897H69.0019V29ZM90.4712 17.9272V12.3811C90.4712 11.621 90.323 10.906 90.0267 10.2361C89.7433 9.55333 89.3503 8.96072 88.8479 8.45828C88.3455 7.95585 87.7529 7.56293 87.0701 7.2795C86.4002 6.9832 85.6852 6.83504 84.9251 6.83504C84.165 6.83504 83.4436 6.9832 82.7608 7.2795C82.0909 7.56293 81.5047 7.95585 81.0023 8.45828C80.4998 8.96072 80.1005 9.55333 79.8041 10.2361C79.5207 10.906 79.379 11.621 79.379 12.3811V17.9272H90.4712ZM96.0172 29H90.4712V23.4539H79.379V29H73.8523V12.3811C73.8523 10.8481 74.1421 9.41162 74.7219 8.0718C75.3016 6.7191 76.0874 5.54032 77.0794 4.53545C78.0843 3.53059 79.2566 2.7383 80.5964 2.15857C81.9491 1.57884 83.392 1.28897 84.9251 1.28897C86.4581 1.28897 87.8946 1.57884 89.2344 2.15857C90.5871 2.7383 91.7659 3.53059 92.7707 4.53545C93.7756 5.54032 94.5679 6.7191 95.1476 8.0718C95.7274 9.41162 96.0172 10.8481 96.0172 12.3811V29ZM122.994 29H117.061L106.375 10.7579V29H100.829V1.28897H106.762L117.448 19.5504V1.28897H122.994V29ZM155.304 15.2604C155.304 16.5745 155.13 17.8434 154.782 19.0673C154.447 20.2783 153.971 21.4184 153.352 22.4877C152.734 23.5441 151.987 24.5103 151.111 25.3864C150.235 26.2624 149.269 27.016 148.212 27.6473C147.156 28.2657 146.016 28.7423 144.792 29.0773C143.568 29.4251 142.299 29.5991 140.985 29.5991C139.671 29.5991 138.402 29.4251 137.178 29.0773C135.967 28.7423 134.827 28.2657 133.758 27.6473C132.701 27.016 131.735 26.2624 130.859 25.3864C129.983 24.5103 129.229 23.5441 128.598 22.4877C127.98 21.4184 127.496 20.2783 127.149 19.0673C126.814 17.8434 126.646 16.5745 126.646 15.2604C126.646 13.9464 126.814 12.6774 127.149 11.4535C127.496 10.2297 127.98 9.08954 128.598 8.03315C129.229 6.97676 129.983 6.01054 130.859 5.13451C131.735 4.25847 132.701 3.51127 133.758 2.89289C134.827 2.27451 135.967 1.79785 137.178 1.46289C138.402 1.11506 139.671 0.941137 140.985 0.941137C142.299 0.941137 143.568 1.11506 144.792 1.46289C146.016 1.79785 147.156 2.27451 148.212 2.89289C149.269 3.51127 150.235 4.25847 151.111 5.13451C151.987 6.01054 152.734 6.97676 153.352 8.03315C153.971 9.08954 154.447 10.2297 154.782 11.4535C155.13 12.6774 155.304 13.9464 155.304 15.2604ZM149.797 15.2604C149.797 14.0494 149.565 12.9093 149.101 11.84C148.637 10.7579 148.006 9.82387 147.207 9.03801C146.421 8.23928 145.487 7.60802 144.405 7.14423C143.336 6.68045 142.196 6.44856 140.985 6.44856C139.761 6.44856 138.614 6.68045 137.545 7.14423C136.476 7.60802 135.542 8.23928 134.743 9.03801C133.944 9.82387 133.313 10.7579 132.849 11.84C132.386 12.9093 132.154 14.0494 132.154 15.2604C132.154 16.4714 132.386 17.6116 132.849 18.6808C133.313 19.7372 133.944 20.6648 134.743 21.4635C135.542 22.2623 136.476 22.8935 137.545 23.3573C138.614 23.8211 139.761 24.053 140.985 24.053C142.196 24.053 143.336 23.8211 144.405 23.3573C145.487 22.8935 146.421 22.2623 147.207 21.4635C148.006 20.6648 148.637 19.7372 149.101 18.6808C149.565 17.6116 149.797 16.4714 149.797 15.2604Z" fill="white"/>
</svg>
