<svg width="30" height="20" viewBox="0 0 30 20" fill="none" xmlns="http://www.w3.org/2000/svg">
<g clip-path="url(#clip0_295_61)">
<path d="M29.6908 0.456787H0.690796V19.7903H29.6908V0.456787Z" fill="#F0F0F0"/>
<path d="M17.0033 0.456543H13.3783V8.31067H0.690796V11.9357H13.3783V19.7898H17.0033V11.9357H29.6908V8.31067H17.0033V0.456543Z" fill="#FF4B55"/>
<path d="M22.9951 13.4856L29.6909 17.2055V13.4856H22.9951Z" fill="#0052B4"/>
<path d="M18.343 13.4856L29.6908 19.7899V18.0072L21.552 13.4856H18.343Z" fill="#0052B4"/>
<path d="M26.6682 19.79L18.343 15.1645V19.79H26.6682Z" fill="#0052B4"/>
<path d="M18.343 13.4856L29.6908 19.7899V18.0072L21.552 13.4856H18.343Z" fill="#F0F0F0"/>
<path d="M18.343 13.4856L29.6908 19.7899V18.0072L21.552 13.4856H18.343Z" fill="#FF4B55"/>
<path d="M5.80777 13.4856L0.690796 16.3284V13.4856H5.80777Z" fill="#0052B4"/>
<path d="M12.0387 14.2872V19.7899H2.13464L12.0387 14.2872Z" fill="#0052B4"/>
<path d="M8.82966 13.4856L0.690796 18.0072V19.7899L12.0386 13.4856H8.82966Z" fill="#FF4B55"/>
<path d="M7.38657 6.76092L0.690796 3.04099V6.76092H7.38657Z" fill="#0052B4"/>
<path d="M12.0386 6.76087L0.690796 0.456543V2.23925L8.82966 6.76087H12.0386Z" fill="#0052B4"/>
<path d="M3.7135 0.456543L12.0387 5.08204V0.456543H3.7135Z" fill="#0052B4"/>
<path d="M12.0386 6.76087L0.690796 0.456543V2.23925L8.82966 6.76087H12.0386Z" fill="#F0F0F0"/>
<path d="M12.0386 6.76087L0.690796 0.456543V2.23925L8.82966 6.76087H12.0386Z" fill="#FF4B55"/>
<path d="M24.5739 6.76117L29.6908 3.91838V6.76117H24.5739Z" fill="#0052B4"/>
<path d="M18.343 5.95948V0.456787H28.247L18.343 5.95948Z" fill="#0052B4"/>
<path d="M21.552 6.76087L29.6908 2.23925V0.456543L18.343 6.76087H21.552Z" fill="#FF4B55"/>
</g>
<defs>
<clipPath id="clip0_295_61">
<rect width="29" height="19" fill="white" transform="translate(0.690796 0.5)"/>
</clipPath>
</defs>
</svg>
